<?xml version="1.0" encoding="UTF-8" standalone="no"?>
<svg
   version="1.0"
   width="1000pt"
   height="500pt"
   viewBox="0 0 1000 500"
   preserveAspectRatio="xMidYMid"
   id="svg3"
   sodipodi:docname="o3p_logo.svg"
   xml:space="preserve"
   inkscape:version="1.3.2 (091e20e, 2023-11-25, custom)"
   inkscape:export-filename="o3p_logo.png"
   inkscape:export-xdpi="28.799999"
   inkscape:export-ydpi="28.799999"
   xmlns:inkscape="http://www.inkscape.org/namespaces/inkscape"
   xmlns:sodipodi="http://sodipodi.sourceforge.net/DTD/sodipodi-0.dtd"
   xmlns:xlink="http://www.w3.org/1999/xlink"
   xmlns="http://www.w3.org/2000/svg"
   xmlns:svg="http://www.w3.org/2000/svg"><defs
     id="defs3"><linearGradient
       id="linearGradient29"
       inkscape:collect="always"><stop
         style="stop-color:#044a7e;stop-opacity:1;"
         offset="0"
         id="stop29" /><stop
         style="stop-color:#9cd5ff;stop-opacity:1;"
         offset="1"
         id="stop30" /></linearGradient><linearGradient
       inkscape:collect="always"
       xlink:href="#linearGradient29"
       id="linearGradient30-9"
       x1="21496.404"
       y1="7457.0376"
       x2="21496.404"
       y2="12997.515"
       gradientUnits="userSpaceOnUse" /><linearGradient
       inkscape:collect="always"
       xlink:href="#linearGradient29"
       id="linearGradient47"
       gradientUnits="userSpaceOnUse"
       x1="21496.404"
       y1="7457.0376"
       x2="21496.404"
       y2="12997.515" /><linearGradient
       inkscape:collect="always"
       xlink:href="#linearGradient29"
       id="linearGradient48"
       gradientUnits="userSpaceOnUse"
       x1="21496.404"
       y1="7457.0376"
       x2="21496.404"
       y2="12997.515" /><linearGradient
       inkscape:collect="always"
       xlink:href="#linearGradient29"
       id="linearGradient49"
       gradientUnits="userSpaceOnUse"
       x1="21496.404"
       y1="7457.0376"
       x2="21496.404"
       y2="12997.515" /></defs><sodipodi:namedview
     id="namedview3"
     pagecolor="#ffffff"
     bordercolor="#000000"
     borderopacity="0.25"
     inkscape:showpageshadow="2"
     inkscape:pageopacity="0.0"
     inkscape:pagecheckerboard="0"
     inkscape:deskcolor="#d1d1d1"
     inkscape:document-units="pt"
     inkscape:zoom="0.4521271"
     inkscape:cx="880.28344"
     inkscape:cy="505.38886"
     inkscape:window-width="1920"
     inkscape:window-height="1111"
     inkscape:window-x="-9"
     inkscape:window-y="-9"
     inkscape:window-maximized="1"
     inkscape:current-layer="g3" /><g
     transform="matrix(0.1,0,0,-0.1,0,1024)"
     fill="#000000"
     stroke="none"
     id="g3"><g
       id="g17-4-2"
       style="fill:url(#linearGradient30-9);fill-opacity:1;stroke:none;stroke-width:38;stroke-linecap:round;stroke-linejoin:round;stroke-dasharray:none;stroke-opacity:1"
       transform="matrix(1.1526692,0,0,1.1526692,-19085.648,-2935.5389)"><path
         d="m 19674.307,10964.414 c -169,-22 -342,-75 -520,-161 l -135,-66 -290,-13 c -159,-8 -425,-23 -590,-33 -165,-11 -352,-23 -415,-28 -63,-4 -106,-8 -95,-10 11,-2 250,-19 530,-38 281,-19 547,-38 592,-41 l 82,-6 -91,-107 c -50,-58 -96,-112 -103,-119 -15,-17 -109,-28 -360,-42 -104,-6 -307,-17 -450,-25 -982,-55 -1043,-58 -970,-62 231,-13 848,-58 1050,-78 138,-13 306,-29 375,-36 69,-6 137,-14 151,-17 l 26,-7 -59,-121.0005 -58,-121 -213,-12 c -116,-6 -365,-21 -552,-32 -187,-10 -362,-19 -389,-19 -105,0 -27,-10 294,-40 305,-28 792,-79 797,-84 3,-2 -49,-278 -53,-284 -2,-2 -125,-12 -276,-22 -150,-10 -322,-22 -383,-26 l -110,-7 365,-46 365,-46 7,-149 c 12,-246 62,-392 178,-519 108,-118 226,-182 425,-231 230,-56 500,-43 723,36 239,84 375,165 538,321 236,225 427,533 538,867 84,253 109,388 110,595.0005 1,106 -4,193 -12,230 -74,340 -239,507 -572,580 -74,16 -374,28 -450,19 z m 122,-575 c 29,-6 69,-19 88,-29 48,-24 121,-104 150,-165 78,-158 -26,-642.0005 -201,-932.0005 -134,-224 -311,-362 -513,-398 -156,-28 -267,-7 -351,67 -58,51 -90,113 -103,202 -33,208 96,629 276,901.0005 26,39 87,111 137,161 113,114 208,166 360,198 40,8 105,6 157,-5 z"
         id="path1-2-0-3"
         style="fill:url(#linearGradient47);fill-opacity:1;stroke:none;stroke-width:38;stroke-linecap:round;stroke-linejoin:round;stroke-dasharray:none;stroke-opacity:1" /><path
         d="m 21472.307,10943.414 c -500,-3 -537,-4 -542,-21 -15,-52 -126,-525 -126,-537 0,-19 -47,-17 503,-15 257,1 467,0 467,-3 0,-2 -82,-74 -182,-158 -101,-85 -221,-188 -268,-229.0005 -47,-42 -121,-106 -166,-142 l -80,-67 -51,-183 c -28,-101 -49,-185 -47,-188 3,-2 109,-7 237,-11 248,-7 295,-15 367,-63 22,-15 47,-43 60,-71 19,-40 22,-58 18,-128 -8,-140 -72,-228 -218,-302 -99,-50 -200,-74 -344,-81 -178,-9 -306,17 -477,101 l -77,37 -156,-160 c -86,-88 -194,-192 -240,-233 l -85,-73 40,-29 c 175,-129 404,-203 704,-228 398,-33 716,42 1015,240 115,77 259,216 326,317 156,235 231,584 170,789 -42,139 -192,266 -379,320 -31,9 -57,18 -57,19 0,2 165,142 366,311.0005 372,313 428,370 457,455 20,59 61,319 52,328 -7,8 -444,9 -1287,5 z"
         id="path2-77-8-9"
         style="fill:url(#linearGradient48);fill-opacity:1;stroke:none;stroke-width:38;stroke-linecap:round;stroke-linejoin:round;stroke-dasharray:none;stroke-opacity:1" /><path
         d="m 23919.307,10930.414 c -149,-32 -304,-119 -428,-243 -36,-35 -47,-42 -41,-25 24,76 54,197 54,219 0,19 -6,28 -22,33 -13,3 -135,6 -273,6 h -250 l -36,-138 c -34,-128 -100,-358 -594,-2077.0005 -103,-357 -223,-777 -266,-933 -43,-156 -81,-287 -84,-292 -10,-17 49,-20 319,-16 182,3 282,8 289,15 6,6 32,89 58,184 26,94 65,235 87,312 65,226 131,467 138,503 4,17 12,32 18,32 6,0 45,-12 86,-26 134,-44 235,-56 435,-51 194,4 254,16 417,78 277,107 572,426 738,797 75,169 150,376 178,496 24,101 26,130 27,326.0005 0,205 -1,219 -28,315 -68,243 -228,403 -472,471 -68,19 -287,28 -350,14 z m -21,-590 c 133,-42 217,-160 232,-325 16,-167.0005 -110,-552.0005 -247,-752.0005 -85,-124 -196,-213 -317,-255 -60,-20 -85,-23 -227,-22 -138,0 -168,3 -219,22 -33,12 -64,26 -69,31 -7,7 174,696 293,1113.0005 20,69 167,182 273,209 55,14 206,3 281,-21 z"
         id="path3-7-9-7"
         style="fill:url(#linearGradient49);fill-opacity:1;stroke:none;stroke-width:38;stroke-linecap:round;stroke-linejoin:round;stroke-dasharray:none;stroke-opacity:1" /></g></g></svg>
